<svg id="flat" height="512" viewBox="0 0 512 512" width="512" xmlns="http://www.w3.org/2000/svg"><path d="m432 126.62988v345.37012a15.99568 15.99568 0 0 1 -16 16h-320a15.99568 15.99568 0 0 1 -16-16v-432a15.99552 15.99552 0 0 1 16-16h233.37a16.14437 16.14437 0 0 1 11.32 4.68994l86.62 86.62012a16.14443 16.14443 0 0 1 4.69 11.31982z" fill="#548aff"/><g fill="#4976f2"><path d="m288 48h16v16h-16z"/><path d="m231.83936 94.66309-13.3125-8.875 22.81689-34.22559a7.99943 7.99943 0 0 1 6.65625-3.5625h24v16h-19.71875z"/><path d="m352 176h-56a8.00035 8.00035 0 0 1 -5.65674-2.34277l-43.895-43.89453 11.31348-11.31446 41.55174 41.55176h52.68652z"/><path d="m312 240h-40a8.00035 8.00035 0 0 1 -5.65674-2.34277l-46.81689-46.81641 11.31347-11.31445 44.47364 44.47363h36.68652z"/><path d="m368 160h16v16h-16z"/><path d="m328 224h16v16h-16z"/></g><path d="m430.55 120h-78.55a15.99568 15.99568 0 0 1 -16-16v-78.55a15.82838 15.82838 0 0 1 4.69 3.24l86.62 86.62012a15.82323 15.82323 0 0 1 3.24 4.68988z" fill="#91c0ff"/><path d="m272 144a72.00443 72.00443 0 1 1 -17.33-46.8501 71.637 71.637 0 0 1 17.33 46.8501z" fill="#ffc431"/><path d="m272 144a71.637 71.637 0 0 1 -7.59 32.21l-64.41-32.21v-72a72.00443 72.00443 0 0 1 72 72z" fill="#ffa100"/><path d="m272 144a71.637 71.637 0 0 1 -7.59 32.21l-64.41-32.21 54.67-46.8501a71.72037 71.72037 0 0 1 17.33 46.8501z" fill="#f78e00"/><path d="m136 256h104v32h-104z" fill="#02c26a"/><path d="m136 288h160v32h-160z" fill="#08d175"/><path d="m136 320h240v32h-240z" fill="#3cde8d"/><path d="m128 232h16v144h-16z" fill="#7dafff"/><path d="m128 400h40v16h-40z" fill="#4976f2"/><path d="m184 400h104v16h-104z" fill="#4976f2"/><path d="m128 432h64v16h-64z" fill="#4976f2"/><path d="m208 432h56v16h-56z" fill="#4976f2"/><path d="m304 400h48v16h-48z" fill="#4976f2"/></svg>